<svg xmlns="http://www.w3.org/2000/svg" version="1.1" xmlns:xlink="http://www.w3.org/1999/xlink" xmlns:svgjs="http://svgjs.dev/svgjs" width="1000" height="1000" viewBox="0 0 1000 1000"><rect width="1000" height="1000" fill="#ffffff"></rect><g transform="matrix(0.7,0,0,0.7,149.57575757575756,282.1265587044535)"><svg viewBox="0 0 396 247" data-background-color="#ffffff" preserveAspectRatio="xMidYMid meet" height="623" width="1000" xmlns="http://www.w3.org/2000/svg" xmlns:xlink="http://www.w3.org/1999/xlink"><g id="tight-bounds" transform="matrix(1,0,0,1,0.2400000000000091,-0.09999999999999432)"><svg viewBox="0 0 395.52 247.2" height="247.2" width="395.52"><g><svg></svg></g><g><svg viewBox="0 0 395.52 247.2" height="247.2" width="395.52"><g transform="matrix(1,0,0,1,75.54432000000001,80.98417619002376)"><svg viewBox="0 0 244.43135999999996 85.23164761995248" height="85.23164761995248" width="244.43135999999996"><g><svg viewBox="0 0 244.43135999999996 85.23164761995248" height="85.23164761995248" width="244.43135999999996"><g><svg viewBox="0 0 244.43136 85.2316476199525" height="85.23164761995248" width="244.43135999999996"><g><svg viewBox="0 0 244.43136 85.2316476199525" height="85.2316476199525" width="244.43136"><g id="textblocktransform"><svg viewBox="0 0 244.43136 85.2316476199525" height="85.2316476199525" width="244.43136" id="textblock"><g><svg viewBox="0 0 244.43136 85.2316476199525" height="85.2316476199525" width="244.43136"><g transform="matrix(1,0,0,1,0,0)"><svg width="244.43136" viewBox="2.799999952316284 -35.54999923706055 105.25 36.70000076293945" height="85.2316476199525" data-palette-color="#f3a83c"><path d="M19.75 1.15Q14.95 1.15 11.08-1.28 7.2-3.7 5-7.83 2.8-11.95 2.8-16.8L2.8-16.8Q2.8-21.8 5.1-26.13 7.4-30.45 11.35-33 15.3-35.55 20.05-35.55L20.05-35.55Q23-35.55 25.73-34.68 28.45-33.8 30.18-32.1 31.9-30.4 31.9-28L31.9-28Q31.9-26.05 30.53-24.68 29.15-23.3 27.25-23.3L27.25-23.3Q25.75-23.3 24.4-24.3L24.4-24.3 26.15-26.5Q26.8-26.1 27.3-26.1L27.3-26.1Q27.95-26.1 28.4-26.65 28.85-27.2 28.85-28.05L28.85-28.05Q28.85-29.5 27.48-30.55 26.1-31.6 24.05-32.15 22-32.7 20.1-32.7L20.1-32.7Q16.05-32.7 12.78-30.53 9.5-28.35 7.65-24.7 5.8-21.05 5.8-16.8L5.8-16.8Q5.8-12.7 7.58-9.22 9.35-5.75 12.53-3.73 15.7-1.7 19.8-1.7L19.8-1.7Q23.4-1.7 26.53-3.33 29.65-4.95 31.6-7.8L31.6-7.8 33.9-6.2Q31.45-2.6 27.7-0.73 23.95 1.15 19.75 1.15L19.75 1.15ZM40.65 0.65Q39.45 0.65 38.4 0.1 37.35-0.45 36.7-1.4L36.7-1.4 39.05-3Q39.3-2.6 39.75-2.4 40.2-2.2 40.6-2.2L40.6-2.2Q41.25-2.2 41.75-2.75 42.25-3.3 42.25-4L42.25-4 42.25-34.2 44.15-34.2 49.7-27.95 65.7-7.55 66.4-6.45 66.25-34.15 69.35-34.15 69.35 0 68.3 0 45.75-28.15 45.15-29.2 45.35-3.95Q45.35-1.95 43.95-0.65 42.55 0.65 40.65 0.65L40.65 0.65ZM93.05-17.1L108.05-17.1 108.05-13.05Q108.05-8.95 106.02-5.73 104-2.5 100.67-0.73 97.35 1.05 93.65 1.05L93.65 1.05Q88.95 1.05 85.15-1.33 81.35-3.7 79.22-7.7 77.1-11.7 77.1-16.45L77.1-16.45Q77.1-21.4 79.3-25.65 81.5-29.9 85.4-32.43 89.3-34.95 94.1-34.95L94.1-34.95Q96.55-34.95 99.2-34.23 101.85-33.5 103.72-31.88 105.6-30.25 105.6-27.75L105.6-27.75Q105.6-25.65 104.35-24.33 103.1-23 101.2-23L101.2-23Q100.5-23 99.82-23.28 99.15-23.55 98.7-24L98.7-24 100.1-26.05Q100.25-25.9 100.62-25.78 101-25.65 101.25-25.65L101.25-25.65Q101.95-25.65 102.42-26.28 102.9-26.9 102.9-27.75L102.9-27.75Q102.9-29.95 100.1-31.05 97.3-32.15 94.3-32.15L94.3-32.15Q90.35-32.15 87.1-30 83.85-27.85 81.97-24.23 80.1-20.6 80.1-16.4L80.1-16.4Q80.1-12.6 81.87-9.22 83.65-5.85 86.7-3.8 89.75-1.75 93.4-1.75L93.4-1.75Q96.55-1.75 99.27-3.2 102-4.65 103.6-7.15 105.2-9.65 105.2-12.7L105.2-12.7 105.2-14.3 93.05-14.3 93.05-17.1Z" opacity="1" transform="matrix(1,0,0,1,0,0)" fill="#f3a83c" class="undefined-text-0" data-fill-palette-color="primary" id="text-0"></path></svg></g></svg></g></svg></g></svg></g><g></g></svg></g></svg></g></svg></g><g><path d="M92.876 60.863A122.216 122.216 0 0 1 302.644 60.863L294.958 60.863A114.529 114.529 0 0 0 100.562 60.863L92.876 60.863M92.876 186.337A122.216 122.216 0 0 0 302.644 186.337L294.958 186.337A114.529 114.529 0 0 1 100.562 186.337L92.876 186.337" fill="#f3a83c" stroke="transparent" data-fill-palette-color="tertiary"></path></g></svg></g><defs></defs></svg><rect width="395.52" height="247.2" fill="none" stroke="none" visibility="hidden"></rect></g></svg></g></svg>